<?xml version="1.0" standalone="no"?>
<!DOCTYPE svg PUBLIC "-//W3C//DTD SVG 20010904//EN"
 "http://www.w3.org/TR/2001/REC-SVG-20010904/DTD/svg10.dtd">
<svg version="1.0" xmlns="http://www.w3.org/2000/svg"
 width="557.000000pt" height="557.000000pt" viewBox="0 0 557.000000 557.000000"
 preserveAspectRatio="xMidYMid meet">
<metadata>
Created by potrace 1.11, written by Peter Selinger 2001-2013
</metadata>
<g transform="translate(0.000000,557.000000) scale(0.100000,-0.100000)"
fill="#000000" stroke="none">
<path d="M2595 5503 c-135 -6 -373 -47 -543 -93 -121 -33 -358 -127 -492 -195
-256 -130 -461 -279 -664 -480 -324 -321 -533 -656 -669 -1070 -95 -288 -128
-480 -135 -778 -5 -247 5 -366 47 -584 51 -259 114 -441 241 -695 110 -219
224 -387 383 -569 32 -36 71 -103 84 -144 55 -175 3 -353 -141 -488 -51 -47
-176 -127 -200 -127 -20 0 -59 -38 -51 -49 28 -46 331 -63 474 -27 92 23 229
90 298 145 29 22 76 70 104 106 l52 64 71 -40 c303 -173 627 -278 1000 -325
360 -46 678 -21 1059 82 600 164 1163 578 1517 1119 162 248 318 624 374 905
47 235 60 354 60 555 0 362 -70 704 -216 1055 -72 175 -222 436 -318 555 -22
28 -59 74 -82 104 -62 82 -290 307 -398 393 -244 195 -581 372 -900 473 -104
32 -276 70 -413 90 -93 14 -395 24 -542 18z"/>
</g>
</svg>
